# xmcd CD database file
#
# Track frame offsets:
#	180
#	23987
#	37658
#	60208
#	74110
#	95197
#	112426
#	132009
#	149227
#	165272
#	183020
#	200199
#
# Disc length: 2859 seconds
#
# Revision: 0
# Processed by: cddbd v1.5.1PL0 Copyright (c) Steve Scherf et al.
# Submitted via: CDex 1.51
#
DISCID=b30b290c
DTITLE=Bobby Patterson - I'd Rather Eat Soup
DYEAR=1900
DGENRE=Blues
TTITLE0=I'd Rather Eat Soup
TTITLE1=Drink From Your Own Well
TTITLE2=Talk Show Blues
TTITLE3=When The Livking Stops
TTITLE4=This Time
TTITLE5=Charity Begins At Home (with Lois Peoples)
TTITLE6=Money Is A Terrible Thing To Waste
TTITLE7=My Weakness Is You
TTITLE8=It Ain't All About The Sex
TTITLE9=I'm Going Out Tonight
TTITLE10=Grandma's Hands (aka Mama's Hands)
TTITLE11=Drink From Your Own Well (jeep mix)
EXTD=
EXTT0=
EXTT1=
EXTT2=
EXTT3=
EXTT4=
EXTT5=
EXTT6=
EXTT7=
EXTT8=
EXTT9=
EXTT10=
EXTT11=
PLAYORDER=
